<svg xmlns="http://www.w3.org/2000/svg"  viewBox="0 0 72 72" width="128px" height="128px"><path d="M 25 11 C 20.029 11 16 15.029 16 20 L 16 52 C 16 56.971 20.029 61 25 61 L 47 61 C 51.971 61 56 56.971 56 52 L 56 31.070312 C 56 28.683313 55.051281 26.395031 53.363281 24.707031 L 42.292969 13.636719 C 40.604969 11.948719 38.316688 11 35.929688 11 L 25 11 z M 26 19 L 31 19 L 31 27 C 31 31.971 35.029 36 40 36 L 48 36 L 48 51 C 48 52.105 47.105 53 46 53 L 26 53 C 24.895 53 24 52.105 24 51 L 24 21 C 24 19.895 24.895 19 26 19 z M 39 21.65625 L 45.34375 28 L 41 28 C 39.895 28 39 27.105 39 26 L 39 21.65625 z"/></svg>