<?xml version="1.0" encoding="UTF-8" standalone="no"?>
<!-- Created with Inkscape (http://www.inkscape.org/) -->

<svg
   width="23.875999mm"
   height="28.244797mm"
   viewBox="0 0 23.875999 28.244797"
   version="1.1"
   id="svg5"
   xmlns="http://www.w3.org/2000/svg"
   xmlns:svg="http://www.w3.org/2000/svg">
  <defs
     id="defs2" />
  <g
     id="layer1"
     transform="translate(-44.87333,-102.96736)">
    <g
       aria-label="a"
       id="text1516"
       style="font-size:50.8px;line-height:1.25;font-family:Futura-Bold;-inkscape-font-specification:'Futura-Bold, Normal';stroke-width:0.264583">
      <path
         d="m 52.747332,131.21216 q -3.4036,0 -5.6388,-1.9812 -2.2352,-1.9812 -2.2352,-6.1468 0,-4.064 2.8448,-5.9944 2.8956,-1.9304 8.7376,-2.1336 l 4.2164,-0.1524 v -3.048 q 0,-1.8288 -0.3048,-3.2004 -0.3048,-1.4224 -1.3208,-2.2352 -1.016,-0.8128 -3.0988,-0.8128 -1.9304,0 -2.9464,0.7112 -1.016,0.7112 -1.3716,1.9812 -0.3048,1.27 -0.3048,2.8448 -2.1336,0 -3.2512,-0.7112 -1.0668,-0.762 -1.0668,-2.4892 0,-1.7272 1.2192,-2.794 1.27,-1.1176 3.302,-1.5748 2.0828,-0.508 4.6228,-0.508 4.6736,0 6.9596,1.9812 2.3368,1.9812 2.3368,6.8072 v 13.1572 q 0,2.1336 0.7112,2.8956 0.7112,0.762 2.4384,0.762 h 0.1524 v 2.1336 h -6.858 l -0.8128,-4.3688 h -0.4064 q -1.0668,1.4224 -2.0828,2.54 -1.016,1.0668 -2.3876,1.7272 -1.3716,0.6096 -3.4544,0.6096 z m 1.1684,-3.1496 q 3.0988,0 4.9276,-1.8796 1.8288,-1.9304 1.8288,-5.1816 v -4.1148 l -3.2512,0.1524 q -4.318,0.2032 -5.9944,1.778 -1.6256,1.524 -1.6256,4.5212 0,4.7244 4.1148,4.7244 z"
         style="font-family:'Noto Serif';-inkscape-font-specification:'Noto Serif'"
         id="path2408" />
    </g>
  </g>
</svg>
