<?xml version="1.0" encoding="UTF-8" standalone="no"?>
<!-- Created with Inkscape (http://www.inkscape.org/) -->

<svg
   width="23.87606mm"
   height="28.244781mm"
   viewBox="0 0 23.87606 28.244781"
   version="1.1"
   id="svg5"
   xmlns="http://www.w3.org/2000/svg"
   xmlns:svg="http://www.w3.org/2000/svg">
  <defs
     id="defs2" />
  <g
     id="layer1"
     transform="translate(-75.861521,-102.95651)">
    <g
       aria-label="a"
       id="text1516-9"
       style="font-size:50.8px;line-height:1.25;font-family:Futura-Bold;-inkscape-font-specification:'Futura-Bold, Normal';stroke-width:0.264583"
       transform="translate(30.988051,-0.01100027)">
      <path
         id="path2668"
         style="font-family:'Noto Serif';-inkscape-font-specification:'Noto Serif'"
         d="m 56.150816,102.96751 c -1.693331,0 -3.233925,0.16931 -4.622457,0.50798 -1.354665,0.3048 -2.455458,0.82951 -3.302124,1.57458 -0.812799,0.7112 -1.219047,1.64268 -1.219047,2.79414 0,1.15147 0.355403,1.98126 1.066602,2.48926 0.745066,0.47413 1.828566,0.71106 3.250964,0.71106 0,-1.04986 0.101691,-1.99812 0.304891,-2.84478 0.237067,-0.84667 0.69416,-1.50715 1.371493,-1.98128 0.677332,-0.47413 1.659658,-0.71107 2.94659,-0.71107 1.388532,0 2.421703,0.27101 3.099035,0.81287 0.677333,0.54187 1.117134,1.28674 1.320333,2.23501 0.2032,0.9144 0.304891,1.98112 0.304891,3.20032 v 3.04839 l -4.21628,0.15193 c -3.894663,0.13547 -6.807053,0.84679 -8.737451,2.13372 -1.896531,1.28693 -2.844788,3.28514 -2.844788,5.99447 0,2.77706 0.744874,4.82611 2.235006,6.14691 1.490132,1.3208 3.369868,1.98127 5.638932,1.98127 1.388532,0 2.540171,-0.20338 3.45457,-0.60978 0.914399,-0.44026 1.710118,-1.01582 2.387451,-1.72702 0.677333,-0.74507 1.371361,-1.59163 2.08256,-2.5399 h 0.406694 l 0.81287,4.36872 h 6.857979 v -2.13372 h -0.152445 c -1.151466,0 -1.964478,-0.25422 -2.438611,-0.76222 -0.474133,-0.508 -0.711068,-1.47303 -0.711068,-2.89543 V 111.7556 c 0,-3.21733 -0.778943,-5.48602 -2.336808,-6.80682 -1.523998,-1.3208 -3.844052,-1.98127 -6.959782,-1.98127 z m 0.861963,0.28938 c 0.836623,0.0112 1.566384,0.0978 2.200383,0.24805 0.380926,0.0903 0.712625,0.1998 1.003039,0.32091 0.279643,0.11661 0.508717,0.2387 0.699182,0.35399 0.0923,0.0558 0.172132,0.10821 0.240812,0.15451 0.04379,0.0295 0.07188,0.0489 0.10387,0.0708 a 1.0292134,1.0079353 64.799508 0 1 0.2651,0.15142 c 0.67228,0.55057 1.181848,1.10242 1.558045,1.66966 0.379562,0.57232 0.60521,1.13288 0.737422,1.67587 0.133918,0.55002 0.168067,1.06907 0.177767,1.51205 0.0026,0.11898 0.0035,0.23513 0.0036,0.34623 4e-4,0.32087 -0.0075,0.62463 -0.0031,0.91468 a 0.05372275,7.5599871e-4 88.954056 0 1 0.0021,0.0646 c -0.07467,1.72761 -0.257405,3.57453 -0.371554,5.29167 a 0.60445763,0.66286649 5.3800199 0 1 -0.03876,0.18707 c 0.01317,0.14178 0.01907,0.29101 0.0186,0.44596 -2.9e-5,0.009 -4.47e-4,0.0191 -5.17e-4,0.0284 0.208126,3.52418 0.478954,7.44346 0.627352,10.31048 0.0217,0.14803 0.04438,0.32301 0.05736,0.42271 0.01753,0.13468 0.03514,0.23993 0.05529,0.33073 0.02361,0.10642 0.04936,0.18817 0.07493,0.25477 0.0271,0.0705 0.05713,0.1318 0.08888,0.185 0.03046,0.0511 0.07205,0.11051 0.131775,0.17311 0.05343,0.056 0.13331,0.12721 0.256831,0.20361 0.01516,0.009 0.03133,0.0184 0.04806,0.0284 0.201105,0.11601 0.537399,0.26768 1.118794,0.39274 l -0.04961,-0.005 c 0.854872,0.25016 1.983639,0.6727 2.377633,0.79944 -0.405483,0.0829 -1.573929,0.3801 -2.451014,0.53536 a 0.04454957,0.00132985 3.5564161 0 1 -0.04909,-0.005 c -0.69445,-0.0406 -1.196607,-0.14544 -1.580266,-0.28784 -0.03144,-0.0117 -0.06195,-0.0236 -0.09198,-0.0357 -0.248573,-0.10045 -0.454121,-0.21864 -0.626318,-0.34675 -0.194447,-0.14466 -0.349707,-0.30491 -0.473873,-0.47232 -0.127578,-0.17201 -0.224603,-0.35393 -0.298173,-0.54054 -0.06786,-0.17212 -0.116542,-0.34996 -0.152962,-0.53433 -0.03067,-0.15528 -0.05209,-0.31273 -0.06976,-0.47852 -0.01614,-0.15143 -0.02497,-0.30263 -0.03307,-0.46251 a 0.0419193,5.3606276e-4 86.81943 0 1 -0.0036,-0.0537 c -0.03122,-1.50101 -0.04925,-3.30113 -0.06614,-5.18211 -0.294525,0.83305 -0.626877,1.62826 -0.979269,2.35437 -0.143957,0.29662 -0.288517,0.57695 -0.432531,0.84181 -0.291349,0.53583 -0.600291,1.0449 -0.927076,1.52187 -0.547999,0.79985 -1.12949,1.48478 -1.744079,2.05311 -0.751931,0.69533 -1.50546,1.17184 -2.232422,1.48931 -0.677147,0.2957 -1.282784,0.43156 -1.74408,0.49196 0.348384,-0.0357 0.203172,-0.0178 0.04393,0.002 -0.159244,0.0194 -0.333402,0.0363 -0.04393,-0.002 -0.304114,0.0307 -0.654326,0.0469 -1.045931,0.0295 l 0.01757,0.001 c -0.636873,-0.005 -1.488218,-0.0512 -2.381766,-0.26665 -0.690676,-0.16653 -1.409234,-0.43381 -2.09393,-0.86196 -0.625543,-0.39116 -1.195717,-0.89959 -1.682584,-1.54254 -0.478698,-0.63216 -0.851121,-1.36095 -1.122929,-2.17093 l 0.0031,0.0109 c -0.326285,-0.94923 -0.472172,-1.87844 -0.447002,-2.76779 0.02107,-0.74455 0.161304,-1.42379 0.380339,-2.02881 0.08655,-0.23906 0.186234,-0.46888 0.297656,-0.68885 0.462008,-0.91211 1.123518,-1.66701 1.884123,-2.29185 0.807632,-0.66348 1.784316,-1.22796 2.912484,-1.71824 a 2.9326645e-4,0.00839649 64.980266 0 1 0.01034,-0.005 c 1.012427,-0.41743 2.057515,-0.71228 3.146061,-0.90796 0.486112,-0.0874 0.985503,-0.15592 1.502751,-0.20722 0.491255,-0.0487 0.990343,-0.0798 1.503267,-0.0951 1.718686,-0.0514 3.243606,0.073 5.01003,0.19482 -0.112269,-1.5213 -0.259478,-3.11706 -0.324528,-4.62194 l 0.0026,0.0646 c -0.03724,-0.35715 -0.0504,-0.70938 -0.06046,-1.00872 -0.0036,-0.10711 -0.0074,-0.21155 -0.01189,-0.31523 -0.01705,-0.3913 -0.0461,-0.74839 -0.127124,-1.09812 -0.07693,-0.33212 -0.204991,-0.67706 -0.437183,-1.04852 -0.226161,-0.36182 -0.562643,-0.76414 -1.067635,-1.20871 -0.0011,-7.3e-4 -0.0031,-0.002 -0.0041,-0.003 -0.07067,-0.0471 -0.132364,-0.0991 -0.165364,-0.12713 -0.04496,-0.0381 -0.07544,-0.0649 -0.120406,-0.1018 -0.04171,-0.0343 -0.08686,-0.0696 -0.13901,-0.10697 -0.10626,-0.0762 -0.242907,-0.16131 -0.420646,-0.24701 -0.185641,-0.0895 -0.414865,-0.17907 -0.697632,-0.25787 -0.632837,-0.17629 -1.471721,-0.28208 -2.559017,-0.25528 -0.835154,0.0206 -1.752516,0.1179 -2.73575,0.28525 -0.58291,0.0992 -1.174409,0.22186 -1.767334,0.36225 -0.527823,0.1801 -0.904861,0.38033 -1.176156,0.56018 -0.315184,0.20895 -0.532017,0.42045 -0.685229,0.6072 -0.149756,0.18254 -0.264836,0.37344 -0.348816,0.5643 -0.02061,0.0468 -0.04003,0.095 -0.05788,0.1447 -0.04639,0.12912 -0.08625,0.27195 -0.110071,0.43304 -0.06025,0.40736 -0.0022,0.86178 0.195854,1.28933 0.103459,0.22333 0.233551,0.41281 0.373621,0.56224 0.199833,0.21319 0.39935,0.32359 0.54777,0.37569 v 5.2e-4 c -0.14871,0.0251 -0.406638,0.047 -0.736906,-0.0476 -0.237339,-0.068 -0.500899,-0.19222 -0.762227,-0.39222 -0.486532,-0.37236 -0.900261,-0.9602 -1.046965,-1.67587 -0.05902,-0.28791 -0.06991,-0.57587 -0.03772,-0.85163 0.01232,-0.10554 0.03041,-0.20934 0.05426,-0.31109 0.09999,-0.42663 0.29752,-0.81901 0.567924,-1.16788 0.275191,-0.35506 0.641857,-0.68565 1.109493,-0.98186 0.410557,-0.26005 0.934879,-0.51623 1.607138,-0.73949 a 0.53695336,0.91474154 43.694066 0 1 0.07338,-0.0212 c 0.634102,-0.14976 1.271327,-0.28428 1.903243,-0.39843 1.041732,-0.18818 2.038256,-0.31052 2.970878,-0.35192 0.303017,-0.0135 0.593941,-0.0182 0.872815,-0.0145 z m 3.889168,1.06816 a 1.0292134,1.0079353 64.799508 0 1 0.19327,0.0253 c -0.05435,-0.013 -0.118467,-0.0235 -0.19327,-0.0253 z m 0.272335,0.0481 a 1.0292134,1.0079353 64.799508 0 1 0.0584,0.0217 c -0.01512,-0.006 -0.03484,-0.0137 -0.0584,-0.0217 z m 0.101286,0.0424 c 0.01161,0.008 0.03092,0.0212 0.04031,0.0274 0.01522,0.01 0.07849,0.049 0.03101,0.0139 -0.0085,-0.006 -0.03515,-0.0228 -0.07131,-0.0413 z m -3.240629,11.79308 c -0.224493,-5.3e-4 -0.449743,0.003 -0.675928,0.0114 -0.485007,0.0182 -0.953212,0.0591 -1.408183,0.12402 -0.479541,0.0684 -0.935642,0.16409 -1.371492,0.28474 -0.978114,0.27076 -1.86549,0.66947 -2.693376,1.17357 l 0.01034,-0.005 c -0.942042,0.58537 -1.651137,1.21257 -2.178162,1.83193 -0.495331,0.5821 -0.855192,1.18708 -1.096057,1.80196 -0.05853,0.14942 -0.111157,0.30135 -0.157097,0.4563 -0.115464,0.38949 -0.194846,0.82 -0.209806,1.29863 -0.01788,0.57197 0.05707,1.20972 0.268201,1.91668 a 0.01714066,2.0075513e-4 72.959008 0 1 0.0031,0.0114 c 0.172369,0.60308 0.398412,1.11424 0.673344,1.54667 0.278094,0.4374 0.607468,0.79567 0.985987,1.08986 0.419036,0.32568 0.892843,0.5682 1.401464,0.74517 0.664526,0.23121 1.340621,0.33348 1.894975,0.37518 a 0.02282415,3.075867e-4 3.5137478 0 1 0.01757,5.1e-4 c 0.291646,0.0218 0.55089,0.0174 0.77463,0 -0.214626,0.008 -0.08591,-7e-4 0.03152,-0.009 0.117433,-0.008 0.225207,-0.0114 -0.03152,0.009 0.337864,-0.0132 0.799316,-0.0561 1.337386,-0.21549 0.578035,-0.1712 1.233009,-0.47295 1.928048,-0.99839 0.570911,-0.4316 1.139745,-0.99276 1.686202,-1.69498 0.325415,-0.41818 0.635045,-0.87607 0.925008,-1.36943 0.143219,-0.24367 0.286547,-0.50456 0.428397,-0.78186 0.676578,-1.32264 1.265565,-2.93004 1.622124,-4.56252 0.1211,-0.55445 0.206123,-1.08176 0.255798,-1.55856 -0.0042,-0.36881 -0.008,-0.73989 -0.01292,-1.10122 -1.577391,-0.20194 -2.990013,-0.37698 -4.40955,-0.38034 z m 2.637048,0.67799 v 4.115 c 0,2.16746 -0.60963,3.89466 -1.828829,5.18159 -1.219198,1.25307 -2.861483,1.87948 -4.927348,1.87948 -2.743197,0 -4.114994,-1.57467 -4.114994,-4.72426 0,-1.99814 0.542008,-3.50518 1.625741,-4.52117 1.117599,-1.04987 3.115802,-1.64272 5.994466,-1.77819 z" />
    </g>
  </g>
</svg>
